<svg width="41" height="21" viewBox="0 0 41 21" fill="none" xmlns="http://www.w3.org/2000/svg">
<g clip-path="url(#clip0_1:16)">
<path d="M9.99999 6.78134C8.22418 6.78134 6.78134 8.22418 6.78134 9.99999C6.78134 11.7758 8.22418 13.2186 9.99999 13.2186C11.7758 13.2186 13.2186 11.7758 13.2186 9.99999C13.2186 8.22418 11.7758 6.78134 9.99999 6.78134ZM9.75582 9.0455C9.35626 9.0455 9.0233 9.37846 9.0233 9.77802H7.95781C7.98001 8.77912 8.77912 7.98001 9.75582 7.98001V9.0455Z" fill="#333333"/>
<path d="M19.7669 9.33405C18.6792 7.98 14.7947 3.56269 10 3.56269C5.20533 3.56269 1.32075 7.98 0.233074 9.33405C-0.0776914 9.71141 -0.0776914 10.2663 0.233074 10.6659C1.32075 12.02 5.20533 16.4373 10 16.4373C14.7947 16.4373 18.6792 12.02 19.7669 10.6659C20.0777 10.2885 20.0777 9.73361 19.7669 9.33405ZM10 14.6615C7.42508 14.6615 5.33851 12.5749 5.33851 9.99998C5.33851 7.42506 7.42508 5.33849 10 5.33849C12.5749 5.33849 14.6615 7.42506 14.6615 9.99998C14.6615 12.5749 12.5749 14.6615 10 14.6615Z" fill="#333333"/>
</g>
<path d="M30.8473 7.33254L33.7103 10.1955L33.724 10.0456C33.724 8.54134 32.5015 7.3189 30.9973 7.3189L30.8473 7.33254Z" fill="#333333"/>
<path d="M30.9975 5.50119C33.506 5.50119 35.5419 7.53711 35.5419 10.0456C35.5419 10.6319 35.4238 11.1908 35.2193 11.7043L37.8778 14.3628C39.2502 13.2176 40.3318 11.7362 40.9998 10.0456C39.4229 6.05564 35.5465 3.229 30.9975 3.229C29.7251 3.229 28.5072 3.4562 27.3756 3.8652L29.3388 5.82383C29.8523 5.62389 30.4112 5.50119 30.9975 5.50119Z" fill="#333333"/>
<path d="M21.9089 3.02443L23.9811 5.09669L24.3947 5.51025C22.895 6.68271 21.7089 8.24146 21 10.0456C22.5724 14.0356 26.4533 16.8622 30.9977 16.8622C32.4065 16.8622 33.7517 16.5895 34.9832 16.0942L35.3695 16.4805L38.0189 19.1344L39.1777 17.9801L23.0677 1.86561L21.9089 3.02443ZM26.935 8.04603L28.3393 9.45026C28.2984 9.64569 28.2711 9.84107 28.2711 10.0456C28.2711 11.5498 29.4935 12.7722 30.9977 12.7722C31.2022 12.7722 31.3977 12.745 31.5885 12.7041L32.9928 14.1083C32.3883 14.4082 31.7158 14.59 30.9977 14.59C28.4892 14.59 26.4533 12.5541 26.4533 10.0456C26.4533 9.32756 26.6351 8.65497 26.935 8.04603Z" fill="#333333"/>
<defs>
<clipPath id="clip0_1:16">
<rect width="20" height="20" fill="white"/>
</clipPath>
</defs>
</svg>
