<svg width="18" height="18" viewBox="0 0 18 18" fill="none" xmlns="http://www.w3.org/2000/svg">
<g clip-path="url(#clip0_2105:11305)">
<path d="M15.3911 2.35797C13.8704 0.837308 11.8485 -8.50512e-05 9.69811 6.47913e-09C9.34572 6.47913e-09 9.06018 0.285624 9.06018 0.637933C9.06018 0.990242 9.3458 1.27587 9.69811 1.27587C11.5078 1.27578 13.2092 1.98048 14.4889 3.26018C15.7687 4.53987 16.4734 6.24137 16.4733 8.05114C16.4733 8.40345 16.7588 8.68907 17.1112 8.68907C17.4635 8.68907 17.7492 8.40345 17.7492 8.05122C17.7492 5.90054 16.9119 3.87863 15.3911 2.35797Z" fill="white"/>
<path d="M12.7669 8.05124C12.7669 8.40355 13.0525 8.68917 13.4049 8.68909C13.7572 8.68909 14.0428 8.40346 14.0428 8.05115C14.0426 5.65593 12.0936 3.70701 9.6982 3.70667C9.69811 3.70667 9.6982 3.70667 9.69811 3.70667C9.3458 3.70667 9.06027 3.9922 9.06018 4.34451C9.06018 4.69682 9.34572 4.98244 9.69803 4.98253C11.3901 4.98278 12.7667 6.35936 12.7669 8.05124Z" fill="white"/>
<path d="M11.3552 11.3038C10.3828 11.2535 9.88747 11.9766 9.6499 12.324C9.45095 12.6148 9.52546 13.0118 9.81628 13.2107C10.1071 13.4097 10.5041 13.3352 10.703 13.0444C10.9837 12.634 11.1109 12.5694 11.2834 12.5776C11.8355 12.6425 14.01 14.2359 14.2277 14.7342C14.2823 14.8809 14.2803 15.0248 14.2217 15.1997C13.9934 15.8773 13.6155 16.3534 13.1286 16.5766C12.666 16.7887 12.099 16.7695 11.489 16.5213C9.21143 15.5929 7.22159 14.2974 5.57487 12.6706C5.57419 12.6699 5.57351 12.6693 5.57292 12.6687C3.9495 11.0236 2.65637 9.03627 1.72958 6.76217C1.4813 6.15171 1.46208 5.58455 1.67413 5.12209C1.89732 4.63522 2.37347 4.25731 3.05044 4.02927C3.226 3.97041 3.36958 3.96854 3.51494 4.02263C4.015 4.24115 5.60839 6.41556 5.67269 6.96146C5.68188 7.14042 5.61681 7.2675 5.20674 7.54768C4.91584 7.74637 4.84108 8.14333 5.03986 8.43423C5.23855 8.72513 5.63543 8.79981 5.92642 8.60112C6.27396 8.3638 6.99695 7.86979 6.94677 6.89409C6.89148 5.87493 4.90896 3.17597 3.96167 2.82766C3.54038 2.67064 3.09723 2.66792 2.64404 2.82C1.62437 3.16338 0.887937 3.77563 0.514363 4.59048C0.152017 5.381 0.1635 6.29818 0.547961 7.24334C1.53982 9.67701 2.92754 11.8064 4.67249 13.5726C4.67675 13.577 4.68109 13.5812 4.68551 13.5854C6.45046 15.3271 8.57741 16.7123 11.0078 17.703C11.4945 17.9009 11.9738 18 12.4322 18C12.8638 18 13.277 17.9122 13.6603 17.7365C14.4752 17.363 15.0874 16.6266 15.431 15.6063C15.5828 15.154 15.5803 14.711 15.4245 14.2916C15.075 13.3418 12.376 11.3593 11.3552 11.3038Z" fill="white"/>
</g>
<defs>
<clipPath id="clip0_2105:11305">
<rect width="18" height="18" fill="white"/>
</clipPath>
</defs>
</svg>
