<svg width="20" height="20" viewBox="0 0 20 20" fill="none" xmlns="http://www.w3.org/2000/svg">
<g clip-path="url(#clip0_1555:6432)">
<path d="M19.4141 18.6628H18.4005V14.1722C18.7112 13.9158 18.8881 13.5522 18.8881 13.164V11.6533C18.8881 10.8303 18.1548 10.1606 17.2534 10.1606H16.4884V6.48834C16.4884 5.87443 15.9891 5.37498 15.3753 5.37498H15.3059V4.97314C15.9982 4.73041 16.4963 4.07056 16.4963 3.29615C16.4963 3.03615 16.4207 2.59701 15.8313 1.49986C15.5275 0.934312 15.2282 0.458726 15.2155 0.438726C15.1082 0.268608 14.9211 0.165405 14.7199 0.165405C14.5187 0.165405 14.3317 0.268608 14.2243 0.438726C14.2117 0.458726 13.9123 0.934351 13.6085 1.49986C13.0191 2.59701 12.9436 3.03615 12.9436 3.29615C12.9436 4.07052 13.4416 4.73041 14.134 4.97314V5.37498H14.0645C13.4507 5.37498 12.9514 5.87443 12.9514 6.48834V10.1606H11.7686V6.48834C11.7686 5.87443 11.2692 5.37498 10.6554 5.37498H10.5859V4.97314C11.2782 4.73041 11.7763 4.07056 11.7763 3.29615C11.7763 3.03615 11.7007 2.59701 11.1114 1.49986C10.8076 0.934312 10.5082 0.458726 10.4956 0.438765C10.3883 0.268608 10.2012 0.165405 10 0.165405C9.79883 0.165405 9.61176 0.268608 9.50441 0.438726C9.4918 0.458726 9.19242 0.934351 8.88859 1.49986C8.29922 2.59701 8.22367 3.03615 8.22367 3.29615C8.22367 4.07052 8.72172 4.73041 9.41406 4.97314V5.37498H9.34461C8.73082 5.37498 8.23145 5.87443 8.23145 6.48834V10.1606H7.04859V6.48834C7.04859 5.87443 6.54926 5.37498 5.93547 5.37498H5.86602V4.97314C6.55836 4.73041 7.05641 4.07056 7.05641 3.29615C7.05641 3.03615 6.98082 2.59701 6.39148 1.49986C6.0877 0.934312 5.78832 0.458726 5.77566 0.438726C5.66836 0.268608 5.48125 0.165405 5.28008 0.165405C5.07891 0.165405 4.89184 0.268608 4.78449 0.438726C4.77187 0.458726 4.4725 0.934351 4.16867 1.49986C3.5793 2.59701 3.50371 3.03615 3.50371 3.29615C3.50371 4.07052 4.00176 4.73041 4.6941 4.97314V5.37498H4.62465C4.01086 5.37498 3.51152 5.87443 3.51152 6.48834V10.1606H2.7466C1.84523 10.1606 1.11188 10.8303 1.11188 11.6533V13.164C1.11188 13.5522 1.28879 13.9158 1.59941 14.1722V18.6628H0.585938C0.262344 18.6628 0 18.9252 0 19.2488C0 19.5724 0.262344 19.8347 0.585938 19.8347H19.4141C19.7377 19.8347 20 19.5724 20 19.2488C20 18.9252 19.7377 18.6628 19.4141 18.6628ZM14.1155 3.29658C14.1191 3.10943 14.3707 2.54439 14.72 1.90681C15.0691 2.54404 15.3206 3.10884 15.3244 3.29646C15.3242 3.62986 15.0531 3.90107 14.7199 3.90107C14.3866 3.90107 14.1155 3.6297 14.1155 3.29658ZM14.1233 6.54685H15.3166V10.1573H14.1233V6.54685ZM9.39555 3.29658C9.39918 3.10943 9.65082 2.54443 10.0001 1.90685C10.3492 2.54404 10.6007 3.10884 10.6044 3.29646C10.6043 3.62986 10.3332 3.90107 10 3.90107C9.66672 3.90107 9.39555 3.6297 9.39555 3.29658ZM9.40332 6.54685H10.5967V10.1573H9.40332V6.54685ZM4.67559 3.29658C4.67922 3.10943 4.93086 2.54439 5.28016 1.90681C5.62926 2.54404 5.88074 3.10884 5.88449 3.29646C5.88434 3.62986 5.61324 3.90107 5.28004 3.90107C4.94676 3.90107 4.67559 3.6297 4.67559 3.29658ZM4.6834 6.54685H5.87672V10.1573H4.6834V6.54685ZM17.2287 18.6628H2.77129V14.5106C2.86293 14.5001 2.9543 14.4816 3.04426 14.4549L4.5234 14.0171C5.3782 13.7641 6.31961 13.7641 7.17434 14.0171L8.34184 14.3627C8.87648 14.521 9.4382 14.6001 9.99992 14.6001C10.5617 14.6001 11.1234 14.521 11.658 14.3627L12.8255 14.0171C13.6802 13.7641 14.6217 13.7641 15.4765 14.0171L16.9556 14.4549C17.0455 14.4816 17.137 14.5001 17.2286 14.5106V18.6628H17.2287ZM17.7162 13.164C17.7162 13.2128 17.6768 13.2525 17.6437 13.2772C17.5698 13.3323 17.4377 13.3755 17.2883 13.3313L15.8092 12.8935C14.7399 12.5769 13.5622 12.5769 12.4929 12.8935L11.3254 13.2391C10.4707 13.492 9.52926 13.4921 8.67449 13.2391L7.50699 12.8935C6.9723 12.7351 6.4107 12.656 5.84887 12.656C5.28719 12.656 4.72531 12.7352 4.19078 12.8935L2.7116 13.3313C2.5623 13.3755 2.43012 13.3323 2.35625 13.2772C2.32316 13.2525 2.28375 13.2128 2.28375 13.164V11.6533C2.28375 11.5016 2.47383 11.3325 2.7466 11.3325H17.2534C17.5261 11.3325 17.7163 11.5016 17.7163 11.6533V13.164H17.7162Z" fill="#E03C31"/>
</g>
<defs>
<clipPath id="clip0_1555:6432">
<rect width="20" height="20" fill="white"/>
</clipPath>
</defs>
</svg>
