<svg width="13" height="13" viewBox="0 0 13 13" fill="none" xmlns="http://www.w3.org/2000/svg">
<path d="M11.9687 1.8428C11.2958 1.11292 10.3724 0.710938 9.36845 0.710938C8.61803 0.710938 7.9308 0.948181 7.32579 1.41602C7.02051 1.65218 6.74389 1.94109 6.5 2.27831C6.25621 1.94119 5.97949 1.65218 5.67411 1.41602C5.0692 0.948181 4.38197 0.710938 3.63155 0.710938C2.62763 0.710938 1.70415 1.11292 1.0312 1.8428C0.36628 2.56416 0 3.54963 0 4.61782C0 5.71725 0.409721 6.72366 1.28937 7.7851C2.07628 8.73457 3.20725 9.69843 4.51695 10.8145C4.96416 11.1957 5.47108 11.6277 5.99744 12.0879C6.1365 12.2097 6.31493 12.2768 6.5 12.2768C6.68497 12.2768 6.8635 12.2097 7.00236 12.0881C7.52872 11.6278 8.03593 11.1956 8.48335 10.8142C9.79285 9.69833 10.9238 8.73457 11.7107 7.785C12.5904 6.72366 13 5.71725 13 4.61772C13 3.54963 12.6337 2.56416 11.9687 1.8428Z" fill="#202020"/>
</svg>
