<svg width="126" height="28" viewBox="0 0 126 28" fill="none" xmlns="http://www.w3.org/2000/svg">
<path d="M22.1628 5.84073C22.1567 5.83463 22.1504 5.82887 22.1443 5.82277C22.1437 5.82216 22.1431 5.82155 22.1424 5.82094C19.0461 2.75344 13.379 3.67833 9.34063 7.71676C8.73795 8.31943 8.19411 8.96917 7.71781 9.65223C5.30703 9.29486 3.18513 9.89519 1.72778 11.3526C1.72207 11.3583 1.71667 11.3643 1.711 11.37C1.70988 11.3712 1.70871 11.3723 1.70763 11.3735C-1.21283 14.3269 -0.286486 20.2752 3.71632 24.2779C7.76933 28.331 13.7253 29.1827 16.6416 26.2665C16.6452 26.2629 16.6486 26.2591 16.6522 26.2555C16.654 26.2536 16.656 26.2517 16.6578 26.2497C18.1032 24.7929 18.698 22.6781 18.342 20.2764C19.025 19.8001 19.6748 19.2563 20.2775 18.6536C24.3369 14.5941 25.2453 8.92319 22.1628 5.84073ZM10.3349 8.71103C13.4619 5.58399 17.5774 4.59432 20.1985 6.0947L20.1668 6.10552C18.606 6.6369 17.2243 7.55424 16.1712 8.75851C15.1698 9.90348 14.465 11.3095 14.1227 12.8369C12.6406 11.4952 10.9469 10.5153 9.212 9.9895C9.55447 9.54367 9.92999 9.11589 10.3349 8.71103ZM4.71054 23.2836C1.7628 20.3359 0.594485 16.0471 1.99361 13.3517C3.07394 16.5216 5.78548 18.8951 9.07072 19.5462C11.9003 20.107 14.2176 22.1578 15.1182 24.8983L15.3333 25.5529C12.8495 27.5456 8.02025 26.5934 4.71054 23.2836ZM16.3921 24.2814C15.2927 21.1491 12.609 18.814 9.344 18.1669C6.54879 17.6129 4.24193 15.593 3.32355 12.8955L3.03902 12.0597C5.62025 9.93695 10.2983 10.9749 13.6588 14.3353C15.2853 15.9619 16.5511 18.0718 16.9277 20.3311C17.1796 21.8428 16.9894 23.2044 16.3921 24.2814ZM18.0046 18.7822C17.4964 17.1052 16.5637 15.4669 15.2903 14.0209C15.352 13.7974 15.4066 13.5713 15.4516 13.3446C16.0119 10.5174 17.8957 8.36401 20.6199 7.43659L21.4564 7.15182C23.5723 9.70665 22.6706 14.2719 19.2831 17.6594C18.8783 18.0642 18.4504 18.4397 18.0046 18.7822Z" fill="white"/>
<g clip-path="url(#clip0)">
<path d="M49.2378 23.4297H44.8684C45.3477 22.7927 45.6322 22.0012 45.6322 21.1445V20.9909C48.0495 20.9367 49.9994 18.9535 49.9994 16.5234V14.6445C49.9994 13.3845 48.9742 12.3594 47.7142 12.3594H45.6322V10.1758C45.6322 9.75514 45.2911 9.41409 44.8705 9.41409H29.1284C28.7077 9.41409 28.3667 9.75514 28.3667 10.1758V15.8542C27.1826 15.3706 25.9271 15.186 24.7211 15.3461C24.3799 15.3914 24.1115 15.6598 24.0662 16.001C23.7672 18.2529 24.6687 20.6772 26.4776 22.4861C26.8266 22.8352 27.1987 23.1503 27.5879 23.4297H24.7613C24.3407 23.4297 23.9996 23.7707 23.9996 24.1914V24.2421C23.9996 26.3142 25.6854 28 27.7575 28H46.2415C48.3137 28 49.9995 26.3142 49.9995 24.2421V24.1914C49.9995 23.7707 49.6585 23.4297 49.2378 23.4297V23.4297ZM47.7142 13.8828C48.1342 13.8828 48.4759 14.2245 48.4759 14.6445V16.5234C48.4759 18.1135 47.2094 19.4133 45.6322 19.467V13.8828H47.7142ZM29.8901 10.9375H44.1088V21.1445C44.1088 22.4045 43.0836 23.4297 41.8236 23.4297H34.5192C35.3402 22.2451 35.8061 20.7422 35.8061 19.1735C35.8061 16.8894 34.8431 14.7886 33.2301 13.5536C32.9568 13.3444 32.5772 13.3444 32.304 13.5536C31.2885 14.3311 30.5131 15.4831 30.0901 16.8103C30.024 16.7628 29.9572 16.7165 29.8901 16.6712V10.9375ZM33.5545 22.1015C33.2765 20.6044 32.5217 19.1392 31.3726 17.9282C31.5871 16.8474 32.0801 15.8791 32.7679 15.1741C33.7253 16.1498 34.2826 17.5997 34.2826 19.1734C34.2826 20.2349 34.0223 21.2517 33.5545 22.1015V22.1015ZM27.5548 21.4089C26.2461 20.1002 25.5163 18.4211 25.5331 16.8129C27.1401 16.7966 28.8204 17.526 30.129 18.8346C31.4375 20.1431 32.1672 21.8217 32.1507 23.4296H32.0114C30.4461 23.4042 28.8257 22.6798 27.5548 21.4089ZM46.2416 26.4765H27.7576C26.7739 26.4765 25.9367 25.8377 25.639 24.9531H48.3601C48.0624 25.8377 47.2252 26.4765 46.2416 26.4765V26.4765Z" fill="white"/>
<path d="M36.3118 6.90045C36.4529 7.14486 36.7089 7.28142 36.9721 7.28142C37.1013 7.28142 37.2323 7.24851 37.3523 7.17924C37.7166 6.96891 37.8414 6.50304 37.631 6.13874C37.3958 5.73127 37.4816 5.5381 37.6888 5.07136C37.9477 4.48824 38.339 3.60704 37.6311 2.38092C37.4207 2.01667 36.955 1.8918 36.5905 2.10213C36.2262 2.31247 36.1014 2.77829 36.3117 3.14264C36.632 3.69738 36.5198 3.94996 36.2964 4.4532C36.0545 4.99814 35.6889 5.82161 36.3118 6.90045V6.90045Z" fill="white"/>
<path d="M39.7575 6.90032C39.8985 7.14473 40.1546 7.28128 40.4178 7.28128C40.5471 7.28128 40.6781 7.24838 40.798 7.17911C41.1623 6.96878 41.2871 6.50291 41.0768 6.1386C40.8415 5.73113 40.9273 5.53796 41.1345 5.07123C41.3934 4.48811 41.7847 3.6069 41.0768 2.38079C40.8664 2.01639 40.4005 1.89172 40.0363 2.10195C39.672 2.31229 39.5471 2.77815 39.7575 3.14246C40.0777 3.69719 39.9656 3.94978 39.7421 4.45302C39.5002 4.99801 39.1345 5.82147 39.7575 6.90032Z" fill="white"/>
<path d="M32.8658 6.90042C33.0069 7.14483 33.2629 7.28138 33.5262 7.28138C33.6553 7.28138 33.7864 7.24847 33.9063 7.17921C34.2706 6.96887 34.3954 6.50301 34.1851 6.1387C33.9499 5.73123 34.0356 5.53806 34.2428 5.07138C34.5018 4.48826 34.893 3.60705 34.1851 2.38089C33.9748 2.01658 33.5089 1.89176 33.1446 2.1021C32.7803 2.31244 32.6555 2.7783 32.8658 3.14261C33.1861 3.69734 33.0739 3.94993 32.8505 4.45317C32.6085 4.9981 32.2429 5.82157 32.8658 6.90042V6.90042Z" fill="white"/>
</g>
<g clip-path="url(#clip1)">
<path d="M77.8391 17.7372L71.6505 11.5486L71.9452 11.4574C72.1296 11.4004 72.2706 11.2509 72.3169 11.0636C72.3633 10.8762 72.3082 10.6783 72.1717 10.5418L69.3109 7.68099C69.2075 7.57763 69.0676 7.51962 68.9214 7.51962C68.7754 7.51962 68.6352 7.57763 68.5319 7.68099L68.1573 8.0556L60.2635 0.161373C60.1602 0.0580134 60.0201 0 59.8741 0C59.728 0 59.5879 0.0580134 59.4846 0.161373L54.8255 4.82062C54.8249 4.82126 54.824 4.82172 54.8233 4.82246C54.8227 4.82319 54.8222 4.82402 54.8215 4.82466L50.1623 9.48391C49.9472 9.69898 49.9472 10.0477 50.1623 10.2627L54.3024 14.4028C54.3031 14.4035 54.3034 14.4042 54.3041 14.4048C54.3046 14.4054 54.3054 14.4058 54.306 14.4064L58.0566 18.157L57.682 18.5316C57.4669 18.7467 57.4669 19.0954 57.682 19.3104L60.5425 22.1712C60.6471 22.2759 60.7877 22.3326 60.932 22.3326C60.9761 22.3326 61.0205 22.3273 61.0643 22.3164C61.2516 22.2701 61.4011 22.129 61.4582 21.9447L61.5494 21.6499L67.7379 27.8385C67.8413 27.9419 67.9813 27.9999 68.1274 27.9999C68.2734 27.9999 68.4136 27.9419 68.5169 27.8385L77.8392 18.5159C78.0542 18.301 78.0542 17.9523 77.8391 17.7372ZM63.4966 12.7168L60.1337 9.35384L64.0158 5.47153L67.3786 8.83447L63.4966 12.7168ZM59.8741 1.32963L63.237 4.69266L59.3548 8.57497L55.9919 5.21203L59.8741 1.32963ZM55.213 5.99089L58.576 9.35393L54.6936 13.2364L51.3307 9.87339L55.213 5.99089ZM55.4724 14.0152L59.3548 10.1327L62.7177 13.4957L58.8354 17.3782L55.4724 14.0152ZM58.8503 18.9211L59.2248 18.5466C59.2249 18.5465 59.2249 18.5465 59.2249 18.5465C59.225 18.5465 59.225 18.5464 59.225 18.5464L63.8849 13.8862C63.8853 13.8859 63.8858 13.8856 63.8863 13.8851C63.8866 13.8847 63.8869 13.8842 63.8874 13.8837L68.9216 8.84925L70.7474 10.675L67.4768 11.6873C67.3031 11.741 67.1672 11.877 67.1135 12.0505L65.9171 15.9162L62.0515 17.1126C61.8778 17.1663 61.7419 17.3022 61.6882 17.4759L60.676 20.7467L58.8503 18.9211ZM68.1274 26.6704L61.9176 20.4606L62.6546 18.0792L66.5202 16.8828C66.6939 16.8291 66.8297 16.6932 66.8835 16.5195L68.0799 12.6539L70.461 11.917L76.6708 18.1268L68.1274 26.6704Z" fill="white"/>
</g>
<path d="M95.024 10.5934C97.3052 10.0226 98.9999 7.95567 98.9999 5.50008C98.9999 5.0859 98.6641 4.75009 98.25 4.75009H94.5C92.5619 4.75009 90.8659 5.80575 89.9565 7.37217C89.4614 6.36755 88.8077 5.67418 88.2124 5.20805C86.946 4.21665 85.6646 4.01635 85.6107 4.00829C85.2011 3.94735 84.8173 4.22949 84.7562 4.63913C84.6951 5.04882 84.9757 5.43015 85.3853 5.49122C85.5211 5.51307 88.2857 5.99967 89.0536 9.29432C84.1199 9.75346 80.25 13.7626 80.25 18.625C80.25 23.7943 84.6239 27.9999 90 27.9999C95.3761 27.9999 99.7499 23.7943 99.7499 18.625C99.7499 15.2215 97.8538 12.2361 95.024 10.5934V10.5934ZM94.5 6.25008H97.4246C97.0762 7.9596 95.5609 9.25007 93.75 9.25007H90.8253C91.1738 7.54054 92.6891 6.25008 94.5 6.25008ZM90 26.5C85.4509 26.5 81.75 22.9673 81.75 18.625C81.75 14.5263 85.0476 11.1494 89.2433 10.7835C89.2473 10.8953 89.25 11.0086 89.25 11.1251C89.25 11.5392 89.5858 11.8751 90 11.8751C90.4142 11.8751 90.75 11.5392 90.75 11.1251C90.75 11.0088 90.7477 10.895 90.7443 10.7825C94.9458 11.1428 98.25 14.5222 98.25 18.625C98.25 22.9673 94.549 26.5 90 26.5Z" fill="white"/>
<path d="M125.38 12.5839C124.8 12.1337 124.195 11.7181 123.566 11.3393L125.479 8.87293C125.571 8.75512 125.612 8.60584 125.593 8.4579C125.574 8.30996 125.498 8.17547 125.38 8.08398C122.126 5.55443 118.122 4.18117 114.001 4.18117C109.879 4.18117 105.875 5.55443 102.621 8.08398C102.503 8.17547 102.427 8.30996 102.408 8.4579C102.389 8.60584 102.43 8.75512 102.522 8.87293L104.435 11.3393C103.807 11.7181 103.201 12.1337 102.621 12.5839C102.503 12.6754 102.427 12.8099 102.408 12.9579C102.39 13.1058 102.43 13.2551 102.522 13.3729L113.556 27.5948C113.609 27.6626 113.676 27.7174 113.753 27.7552C113.83 27.7929 113.915 27.8125 114.001 27.8125C114.086 27.8125 114.171 27.7929 114.248 27.7552C114.325 27.7174 114.392 27.6626 114.445 27.5948L125.479 13.3729C125.571 13.2551 125.612 13.1058 125.593 12.9579C125.574 12.8099 125.498 12.6754 125.38 12.5839V12.5839ZM103.761 8.63443C106.749 6.45925 110.278 5.31254 114.001 5.31254C117.724 5.31254 121.252 6.45925 124.241 8.63443L122.574 10.7823C119.927 9.40216 116.986 8.68147 114.001 8.68147C111.015 8.68147 108.074 9.40216 105.427 10.7823L103.761 8.63443ZM114.001 26.3324L103.761 13.1343C104.319 12.7282 104.9 12.3552 105.501 12.0175C105.531 12.0044 105.559 11.9889 105.586 11.971C108.164 10.5552 111.058 9.81279 113.999 9.81255C116.94 9.8123 119.834 10.5542 122.413 11.9696C122.442 11.9896 122.473 12.0067 122.506 12.0207C123.105 12.3577 123.684 12.7295 124.24 13.1343L114.001 26.3324Z" fill="white"/>
<path d="M117.104 18.7502C117.046 18.7049 116.979 18.6716 116.908 18.6521C116.836 18.6326 116.762 18.6273 116.689 18.6366C116.615 18.6458 116.545 18.6694 116.481 18.706C116.416 18.7426 116.36 18.7915 116.315 18.8499L115.625 19.7387C115.58 19.7971 115.547 19.8638 115.527 19.9351C115.508 20.0063 115.502 20.0807 115.511 20.154C115.521 20.2273 115.544 20.298 115.581 20.3622C115.618 20.4264 115.666 20.4827 115.725 20.528C115.783 20.5733 115.85 20.6066 115.921 20.6261C115.992 20.6456 116.067 20.6509 116.14 20.6416C116.213 20.6324 116.284 20.6088 116.348 20.5722C116.412 20.5356 116.469 20.4867 116.514 20.4283L117.204 19.5394C117.249 19.4811 117.282 19.4144 117.302 19.3431C117.321 19.2719 117.327 19.1975 117.317 19.1242C117.308 19.0509 117.284 18.9801 117.248 18.916C117.211 18.8518 117.162 18.7955 117.104 18.7502Z" fill="white"/>
<path d="M121.242 13.4172C121.183 13.3719 121.116 13.3386 121.045 13.3191C120.974 13.2995 120.9 13.2943 120.826 13.3035C120.753 13.3128 120.682 13.3364 120.618 13.373C120.554 13.4096 120.498 13.4584 120.452 13.5168L119.763 14.4056C119.717 14.464 119.684 14.5307 119.665 14.602C119.645 14.6732 119.64 14.7476 119.649 14.8209C119.658 14.8942 119.682 14.965 119.718 15.0291C119.755 15.0933 119.804 15.1496 119.862 15.1949C119.98 15.2864 120.13 15.3273 120.278 15.3086C120.426 15.2899 120.56 15.2132 120.652 15.0953L121.341 14.2064C121.433 14.0885 121.473 13.9392 121.455 13.7912C121.436 13.6432 121.359 13.5087 121.242 13.4172V13.4172Z" fill="white"/>
<path d="M119.173 16.0836C119.115 16.0383 119.048 16.005 118.977 15.9855C118.905 15.966 118.831 15.9607 118.758 15.9699C118.684 15.9792 118.614 16.0028 118.549 16.0394C118.485 16.076 118.429 16.1248 118.384 16.1832L117.694 17.0721C117.649 17.1304 117.615 17.1971 117.596 17.2684C117.576 17.3396 117.571 17.414 117.58 17.4873C117.59 17.5606 117.613 17.6314 117.65 17.6955C117.686 17.7597 117.735 17.8161 117.794 17.8613C117.852 17.9066 117.919 17.94 117.99 17.9595C118.061 17.979 118.136 17.9843 118.209 17.975C118.282 17.9658 118.353 17.9422 118.417 17.9056C118.481 17.869 118.538 17.8201 118.583 17.7617L119.272 16.8729C119.318 16.8145 119.351 16.7478 119.371 16.6766C119.39 16.6053 119.395 16.5309 119.386 16.4576C119.377 16.3843 119.353 16.3136 119.317 16.2494C119.28 16.1852 119.231 16.1289 119.173 16.0836Z" fill="white"/>
<path d="M109.531 16.0717C109.486 16.0133 109.43 15.9644 109.365 15.9278C109.301 15.8913 109.23 15.8677 109.157 15.8584C109.084 15.8492 109.009 15.8544 108.938 15.8739C108.867 15.8934 108.8 15.9268 108.742 15.9721C108.683 16.0174 108.635 16.0737 108.598 16.1379C108.561 16.202 108.538 16.2728 108.529 16.3461C108.519 16.4194 108.525 16.4938 108.544 16.565C108.564 16.6363 108.597 16.703 108.642 16.7614L109.332 17.65C109.423 17.7679 109.558 17.8446 109.706 17.8633C109.779 17.8725 109.854 17.8673 109.925 17.8478C109.996 17.8283 110.063 17.7949 110.121 17.7496C110.18 17.7043 110.228 17.648 110.265 17.5838C110.302 17.5197 110.325 17.4489 110.334 17.3756C110.344 17.3023 110.338 17.2279 110.319 17.1567C110.299 17.0854 110.266 17.0187 110.221 16.9603L109.531 16.0717Z" fill="white"/>
<path d="M107.463 13.4052C107.371 13.2873 107.237 13.2106 107.089 13.1919C106.941 13.1732 106.791 13.2141 106.673 13.3055C106.556 13.397 106.479 13.5315 106.46 13.6795C106.441 13.8275 106.482 13.9769 106.574 14.0948L107.263 14.9836C107.355 15.1015 107.489 15.1782 107.637 15.1969C107.785 15.2156 107.935 15.1747 108.053 15.0833C108.171 14.9918 108.247 14.8573 108.266 14.7092C108.285 14.5612 108.244 14.4118 108.152 14.294L107.463 13.4052Z" fill="white"/>
<path d="M111.6 18.7383C111.508 18.6204 111.374 18.5437 111.226 18.525C111.078 18.5063 110.928 18.5472 110.81 18.6387C110.693 18.7301 110.616 18.8647 110.597 19.0127C110.579 19.1607 110.619 19.3101 110.711 19.4279L111.401 20.3168C111.492 20.4347 111.627 20.5114 111.775 20.5301C111.923 20.5488 112.072 20.5079 112.19 20.4164C112.308 20.325 112.384 20.1904 112.403 20.0424C112.422 19.8944 112.381 19.745 112.289 19.6271L111.6 18.7383Z" fill="white"/>
<defs>
<clipPath id="clip0">
<rect width="26" height="26" fill="white" transform="translate(24 2)"/>
</clipPath>
<clipPath id="clip1">
<rect width="28" height="28" fill="white" transform="translate(50)"/>
</clipPath>
</defs>
</svg>
