<svg width="40" height="40" viewBox="0 0 40 40" fill="none" xmlns="http://www.w3.org/2000/svg">
<path d="M10.9818 36.3853C9.14583 34.299 7.30992 32.1292 6.14154 29.5422C4.97323 26.7882 4.63939 23.6171 5.22358 20.6128C5.80778 17.6085 7.14297 14.7711 9.06243 12.351C8.89555 14.4373 9.64662 16.6071 11.0653 18.1927C10.2307 14.187 11.566 9.84742 14.2365 6.67625C16.9069 3.50508 20.5789 1.41867 24.4176 0C22.4983 2.00286 22.2479 5.17403 22.999 7.84456C23.75 10.515 25.3357 12.8517 26.7543 15.2718C28.173 17.6919 29.5083 20.1955 29.5917 22.9494C30.3428 21.5307 31.1774 20.112 31.6781 18.5265C32.1788 16.9408 32.4292 15.2718 32.0119 13.6862C33.5141 15.5222 34.3486 17.3581 34.7658 19.6948C35.1831 22.0315 35.0997 24.4515 34.8493 26.7882C34.5155 29.3753 33.8479 32.0458 32.4292 34.2155C30.7602 36.8025 28.0897 38.6384 25.1689 39.6399C19.9947 40.5579 14.904 39.8068 10.9818 36.3853Z" fill="#E03C31"/>
<path d="M17.3242 39.473C24.1673 42.1435 30.9269 34.0486 27.1715 27.7897C27.1715 27.7062 27.0881 27.7062 27.0881 27.6228C27.4219 31.0443 26.5874 33.5479 25.0017 34.9666C25.8363 32.9638 25.2521 30.6271 24.2507 28.6242C23.2492 26.7048 21.8306 24.9523 20.7457 23.1164C19.6607 21.197 18.8263 19.0272 19.327 16.8574C17.3241 18.3596 15.9055 20.6128 15.3213 23.0329C14.7371 25.453 15.0709 28.1235 16.1558 30.3767C14.904 29.4588 13.9861 27.9566 13.9026 26.371C12.5673 27.9566 11.7329 30.0429 11.8163 32.1292C11.8163 35.3839 14.4033 38.3047 17.3242 39.473Z" fill="#EEEEEE"/>
</svg>
