<svg width="30" height="22" viewBox="0 0 30 22" fill="none" xmlns="http://www.w3.org/2000/svg">
<path d="M24.5266 15.7282C23.7935 15.7282 23.0971 16.0153 22.5718 16.5346C22.0464 17.0599 21.7532 17.7441 21.7532 18.4772C21.7532 19.2102 22.0403 19.8944 22.5718 20.4197C23.1032 20.939 23.7935 21.2261 24.5266 21.2261C26.0293 21.2261 27.2511 19.9921 27.2511 18.4772C27.2511 16.9622 26.0293 15.7282 24.5266 15.7282ZM24.5266 20.0043C23.6836 20.0043 22.975 19.308 22.975 18.4772C22.975 17.6464 23.6836 16.95 24.5266 16.95C25.3574 16.95 26.0293 17.6342 26.0293 18.4772C26.0293 19.3202 25.3574 20.0043 24.5266 20.0043ZM25.2352 6.57124C25.1252 6.46739 24.9786 6.41241 24.8259 6.41241H21.6921C21.3561 6.41241 21.0812 6.6873 21.0812 7.02328V12.0324C21.0812 12.3684 21.3561 12.6433 21.6921 12.6433H26.6646C27.0006 12.6433 27.2755 12.3684 27.2755 12.0324V8.67875C27.2755 8.5077 27.2022 8.34277 27.0739 8.22671L25.2352 6.57124ZM26.0538 11.4216H22.303V7.62805H24.5877L26.0538 8.94754V11.4216ZM9.60904 15.7282C8.87599 15.7282 8.1796 16.0153 7.65425 16.5346C7.12889 17.0599 6.83568 17.7441 6.83568 18.4772C6.83568 19.2102 7.12279 19.8944 7.65425 20.4197C8.18571 20.939 8.87599 21.2261 9.60904 21.2261C11.1118 21.2261 12.3335 19.9921 12.3335 18.4772C12.3335 16.9622 11.1118 15.7282 9.60904 15.7282ZM9.60904 20.0043C8.76604 20.0043 8.05742 19.308 8.05742 18.4772C8.05742 17.6464 8.76604 16.95 9.60904 16.95C10.4398 16.95 11.1118 17.6342 11.1118 18.4772C11.1118 19.3202 10.4398 20.0043 9.60904 20.0043ZM5.53451 16.4796H4.30666V14.8547C4.30666 14.5187 4.03177 14.2438 3.69579 14.2438C3.3598 14.2438 3.08491 14.5187 3.08491 14.8547V17.0905C3.08491 17.4265 3.3598 17.7014 3.69579 17.7014H5.53451C5.87049 17.7014 6.14539 17.4265 6.14539 17.0905C6.14539 16.7545 5.87049 16.4796 5.53451 16.4796ZM8.63164 13.1503C8.63164 12.8144 8.35675 12.5395 8.02077 12.5395H0.610874C0.274893 12.5395 0 12.8144 0 13.1503C0 13.4863 0.274893 13.7612 0.610874 13.7612H8.02077C8.35675 13.7612 8.63164 13.4924 8.63164 13.1503ZM1.85095 10.9451L9.26084 10.9879C9.59682 10.9879 9.87172 10.7191 9.87782 10.3831C9.88393 10.041 9.60904 9.76611 9.27306 9.76611L1.86316 9.72335C1.85706 9.72335 1.85706 9.72335 1.85706 9.72335C1.52108 9.72335 1.24618 9.99213 1.24618 10.3281C1.24007 10.6702 1.51497 10.9451 1.85095 10.9451ZM3.09713 8.17173H10.507C10.843 8.17173 11.1179 7.89683 11.1179 7.56085C11.1179 7.22487 10.843 6.94998 10.507 6.94998H3.09713C2.76115 6.94998 2.48626 7.22487 2.48626 7.56085C2.48626 7.89683 2.76115 8.17173 3.09713 8.17173ZM29.774 7.34705L25.4001 3.72457C25.2902 3.63294 25.1558 3.58407 25.0092 3.58407H19.8656V1.38492C19.8656 1.04894 19.5907 0.774048 19.2547 0.774048H3.69579C3.3598 0.774048 3.08491 1.04894 3.08491 1.38492V5.85652C3.08491 6.1925 3.3598 6.46739 3.69579 6.46739C4.03177 6.46739 4.30666 6.1925 4.30666 5.85652V1.9958H18.65V16.4796H13.6408C13.3048 16.4796 13.0299 16.7545 13.0299 17.0905C13.0299 17.4265 13.3048 17.7014 13.6408 17.7014H21.0996C21.4356 17.7014 21.7104 17.4265 21.7104 17.0905C21.7104 16.7545 21.4356 16.4796 21.0996 16.4796H19.8717V4.80581H24.7954L28.7783 8.10453L28.7355 16.4674H28.1002C27.7642 16.4674 27.4893 16.7423 27.4893 17.0783C27.4893 17.4142 27.7642 17.6891 28.1002 17.6891H29.3403C29.6762 17.6891 29.9511 17.4204 29.9511 17.0844L30 7.82353C29.9939 7.64026 29.9145 7.46311 29.774 7.34705Z" fill="#303030"/>
</svg>
