<svg width="31" height="46" viewBox="0 0 31 46" fill="none" xmlns="http://www.w3.org/2000/svg">
<path d="M29.6648 5.71734V1.20882C29.6648 1.00953 29.5856 0.818402 29.4447 0.677483C29.3038 0.536565 29.1126 0.457397 28.9134 0.457397H1.1108C0.911506 0.457397 0.72038 0.536565 0.579461 0.677483C0.438542 0.818402 0.359375 1.00953 0.359375 1.20882V44.7912C0.359375 44.9905 0.438542 45.1816 0.579461 45.3225C0.72038 45.4635 0.911506 45.5426 1.1108 45.5426H28.9134C29.1126 45.5426 29.3038 45.4635 29.4447 45.3225C29.5856 45.1816 29.6648 44.9905 29.6648 44.7912V42.5835C29.6648 42.3842 29.5856 42.1931 29.4447 42.0522C29.3038 41.9113 29.1126 41.8321 28.9134 41.8321C28.7141 41.8321 28.5229 41.9113 28.382 42.0522C28.2411 42.1931 28.1619 42.3842 28.1619 42.5835V44.0398H1.86222V6.46876H7.12216V23C7.1222 23.1993 7.2014 23.3904 7.34232 23.5313L14.1051 30.2941C14.246 30.4349 14.4371 30.5141 14.6364 30.5141C14.8356 30.5141 15.0267 30.4349 15.1676 30.2941L21.9304 23.5313C22.0713 23.3904 22.1505 23.1993 22.1506 23V6.46876H28.1619V36.5256C28.1619 36.7249 28.2411 36.916 28.382 37.0569C28.5229 37.1978 28.7141 37.277 28.9134 37.277C29.1126 37.277 29.3038 37.1978 29.4447 37.0569C29.5856 36.916 29.6648 36.7249 29.6648 36.5256V5.71734ZM1.86222 4.96592V1.96024H7.12216V4.96592H1.86222ZM20.6477 22.6889L14.6364 28.7003L8.625 22.6889V1.96024H20.6477V22.6889ZM22.1506 4.96592V1.96024H28.1619V4.96592H22.1506Z" fill="#303030"/>
<path d="M12.6024 15.706L11.0996 17.2088C10.3608 17.9476 9.9458 18.9495 9.9458 19.9943C9.9458 21.0391 10.3608 22.0411 11.0996 22.7798C11.8384 23.5186 12.8403 23.9336 13.8851 23.9336C14.9299 23.9336 15.9319 23.5186 16.6706 22.7798L18.1735 21.277C18.9122 20.5382 19.3273 19.5362 19.3273 18.4915C19.3273 17.4467 18.9122 16.4447 18.1735 15.706C17.4347 14.9672 16.4327 14.5522 15.388 14.5522C14.3432 14.5522 13.3412 14.9672 12.6024 15.706ZM12.1621 18.2713L13.6649 16.7685C14.0267 16.4032 14.496 16.1636 15.0039 16.0846C15.5118 16.0056 16.0317 16.0915 16.4873 16.3296L11.7233 21.0936C11.4895 20.637 11.406 20.1182 11.4848 19.6113C11.5636 19.1044 11.8007 18.6354 12.1621 18.2713ZM17.111 20.2145L15.6081 21.7173C15.2439 22.0784 14.7749 22.3153 14.2681 22.3941C13.7612 22.4729 13.2425 22.3896 12.7858 22.1561L17.5498 17.3921C17.7836 17.8487 17.8671 18.3676 17.7883 18.8745C17.7095 19.3814 17.4724 19.8504 17.111 20.2145Z" fill="#303030"/>
<path d="M5.61914 35.0227H23.6532V36.5256H5.61914V35.0227Z" fill="#303030"/>
<path d="M5.61914 38.0284H12.3819V39.5313H5.61914V38.0284Z" fill="#303030"/>
<path d="M13.8848 38.0284H23.6532V39.5313H13.8848V38.0284Z" fill="#303030"/>
<path d="M5.61914 41.0341H9.37624V42.5369H5.61914V41.0341Z" fill="#303030"/>
<path d="M10.8794 41.0341H17.6422V42.5369H10.8794V41.0341Z" fill="#303030"/>
<path d="M19.145 41.0341H23.6535V42.5369H19.145V41.0341Z" fill="#303030"/>
<path d="M10.1279 7.97159H19.145V9.47443H10.1279V7.97159Z" fill="#303030"/>
<path d="M10.1279 10.9773H16.1393V12.4801H10.1279V10.9773Z" fill="#303030"/>
<path d="M17.6421 10.9773H19.1449V12.4801H17.6421V10.9773Z" fill="#303030"/>
<path d="M28.9135 40.2827C29.3285 40.2827 29.6649 39.9462 29.6649 39.5312C29.6649 39.1162 29.3285 38.7798 28.9135 38.7798C28.4985 38.7798 28.1621 39.1162 28.1621 39.5312C28.1621 39.9462 28.4985 40.2827 28.9135 40.2827Z" fill="#303030"/>
</svg>
