<svg width="32" height="46" viewBox="0 0 32 46" fill="none" xmlns="http://www.w3.org/2000/svg">
<path d="M28.601 29.7647H25.9763C25.5253 28.7094 24.47 27.9608 23.2434 27.9608H3.03042C1.38885 27.9608 0.0629883 29.2957 0.0629883 30.9914C0.423772 36.6016 1.51513 46 4.83435 46H21.4395C23.0991 46 24.1995 43.6459 24.9391 40.5882H27.69C30.3238 40.5882 31.3159 35.2216 31.6136 32.9126L31.6226 32.7953C31.6316 31.1267 30.2787 29.7647 28.601 29.7647ZM3.03945 29.7647H23.2524C23.8928 29.7647 24.4159 30.2878 24.4159 30.8741C24.3618 31.731 24.2896 32.5608 24.2085 33.3726H2.06532C1.98414 32.5788 1.92103 31.7671 1.86691 30.9282C1.86691 30.2878 2.39004 29.7647 3.03945 29.7647ZM21.4485 44.1961H4.84337C4.05867 44.1961 2.94025 40.471 2.2728 35.1765H24.0191C23.3516 40.48 22.2332 44.1961 21.4485 44.1961ZM27.6991 38.7843H25.3179C25.7598 36.3761 26.0214 33.7514 26.1747 31.5686H28.601C29.2595 31.5686 29.8006 32.0918 29.8277 32.7412C29.3947 36.0063 28.3034 38.7843 27.6991 38.7843ZM12.8798 17.9761C12.1763 18.9322 11.0038 20.709 11.0038 21.8365C11.0038 23.3788 12.1944 24.6325 13.6555 24.6325C15.1167 24.6325 16.3073 23.3788 16.3073 21.8365C16.3073 20.718 15.1347 18.9412 14.4312 17.9851C14.3771 17.9039 14.2869 17.8227 14.2147 17.7686C13.7998 17.48 13.1685 17.5792 12.8798 17.9761ZM14.4944 21.8365C14.4944 22.3867 14.1155 22.8286 13.6465 22.8286C13.1775 22.8286 12.7987 22.3867 12.7987 21.8365C12.7987 21.5929 13.1053 20.9075 13.6465 20.0506C14.1877 20.9075 14.4944 21.5929 14.4944 21.8365ZM8.11749 10.0118C8.13553 10.1651 8.19865 10.2914 8.27081 10.4176L8.26178 10.4267C8.34296 10.5529 10.3724 13.5384 13.5202 13.5384C16.6681 13.5384 18.6975 10.562 18.7787 10.4267L18.7696 10.4176C18.8508 10.3004 18.914 10.1651 18.923 10.0118L19.7438 1.80392H21.6469V0H5.41161V1.80392H7.29673L8.11749 10.0118ZM11.1391 10.8235H15.9195C15.2881 11.3016 14.4673 11.7255 13.5293 11.7255C12.5912 11.7255 11.7704 11.3016 11.1391 10.8235ZM17.2273 9.01961H9.84024L9.11867 1.80392H17.9489L17.2273 9.01961Z" fill="#303030"/>
</svg>
