<svg width="32" height="46" viewBox="0 0 32 46" fill="none" xmlns="http://www.w3.org/2000/svg">
<path d="M26.6691 31.5852H25.9794C25.9503 31.0466 25.6978 30.5389 25.2743 30.1674C24.8508 29.7959 24.2886 29.5891 23.7044 29.5898H2.73547C2.43585 29.5885 2.13891 29.6419 1.86171 29.7469C1.58451 29.8518 1.3325 30.0063 1.12016 30.2015C0.907813 30.3966 0.739319 30.6285 0.624347 30.8839C0.509376 31.1393 0.450192 31.4132 0.450195 31.6897L1.8193 43.4724C1.79605 44.0295 1.95767 44.5798 2.28253 45.0498C2.28253 45.0498 2.34429 45.1448 2.38547 45.1923C2.48505 45.2969 2.59536 45.3924 2.71488 45.4774C3.22839 45.805 3.84081 45.9745 4.46486 45.962H21.9647C22.5284 45.9862 23.0882 45.8644 23.5808 45.6104C23.6426 45.6104 23.7147 45.5344 23.7661 45.4869C23.9018 45.3806 24.0228 45.2593 24.1264 45.1258C24.4693 44.6484 24.6388 44.0826 24.6102 43.5104L24.8367 41.5245H26.6793C28.1018 41.5245 29.4659 41.0029 30.4717 40.0745C31.4775 39.1461 32.0425 37.8868 32.0425 36.5739C32.0425 35.2609 31.4775 34.0017 30.4717 33.0732C29.4659 32.1448 28.1018 31.6232 26.6793 31.6232L26.6691 31.5852ZM22.5514 43.2729V43.4819C22.5706 43.6606 22.5387 43.8408 22.4588 44.0046C22.2766 44.0864 22.0742 44.1224 21.872 44.1091H4.5678C4.36922 44.1191 4.17106 44.0832 3.99134 44.0046C3.9039 43.8429 3.86819 43.6616 3.8884 43.4819V43.2729L3.09576 36.4788H23.3647L22.5514 43.2729ZM23.5808 34.5784H2.85899L2.509 31.6422C2.52075 31.5979 2.54863 31.5586 2.58797 31.5309C2.62731 31.5033 2.67574 31.4889 2.72517 31.4902H23.7044C23.7534 31.4905 23.8009 31.5055 23.8399 31.5329C23.8789 31.5604 23.9072 31.5987 23.9205 31.6422L23.5808 34.5784ZM26.6691 39.586H25.0735L25.7838 33.4856H26.6588C27.5351 33.4856 28.3756 33.807 28.9953 34.379C29.615 34.9511 29.9631 35.7269 29.9631 36.5358C29.9631 37.3448 29.615 38.1206 28.9953 38.6927C28.3756 39.2647 27.5351 39.586 26.6588 39.586H26.6691ZM12.9265 19.9546C12.2163 20.8383 9.96187 23.879 10.9913 25.7794C11.2635 26.2194 11.6708 26.5751 12.1618 26.8017C12.6527 27.0283 13.2054 27.1156 13.7501 27.0527C14.2949 27.1169 14.8481 27.0302 15.3393 26.8034C15.8305 26.5767 16.2377 26.2202 16.5089 25.7794C17.5383 23.879 15.2942 20.8383 14.5736 19.9546L13.7501 18.9378L12.9265 19.9546ZM14.6765 24.9242C14.5942 25.0667 14.2442 25.1522 13.7501 25.1522C13.256 25.1522 12.906 25.0667 12.8339 24.9242C12.6074 24.5061 13.0707 23.3658 13.7501 22.2636C14.4398 23.3658 14.8618 24.5061 14.6765 24.9242ZM6.89425 8.55195H6.18396C6.018 8.55221 5.85457 8.58949 5.70759 8.66064C5.56061 8.73178 5.43445 8.83468 5.33985 8.96055C5.24427 9.08813 5.18398 9.23537 5.16424 9.38941C5.14451 9.54345 5.16592 9.69961 5.22662 9.84425L7.21336 14.6333V16.5338C7.21336 16.7858 7.32182 17.0275 7.51487 17.2057C7.70792 17.3839 7.96975 17.484 8.24276 17.484H20.1324C20.4054 17.484 20.6672 17.3839 20.8602 17.2057C21.0533 17.0275 21.1618 16.7858 21.1618 16.5338V14.6333L23.1588 9.83475C23.2221 9.69284 23.2495 9.53945 23.2388 9.38629C23.2281 9.23314 23.1796 9.08427 23.097 8.95105C22.9955 8.81869 22.8589 8.71253 22.7004 8.64267C22.5418 8.57282 22.3665 8.54158 22.1912 8.55195H21.625L24.5691 4.34249C24.6615 4.20943 24.7164 4.05719 24.729 3.89957C24.7416 3.74194 24.7114 3.58391 24.6411 3.43979C24.5794 3.29725 23.0353 0.275563 18.3206 0.21855C16.7586 0.243416 15.2101 0.490198 13.7295 0.950218C12.1191 0.370224 10.4132 0.0488479 8.68541 5.28197e-07H8.55159C7.63837 -0.000376715 6.73837 0.201325 5.92701 0.588198C5.11565 0.975071 4.41658 1.53584 3.8884 2.22351C3.80277 2.27213 3.72334 2.32951 3.65163 2.39455C3.50102 2.5474 3.40849 2.74141 3.38806 2.94717C3.36762 3.15293 3.4204 3.35923 3.5384 3.53481L6.89425 8.55195ZM19.175 14.1202C19.1313 14.23 19.107 14.3455 19.103 14.4623V15.6026H9.27217V14.4623C9.27179 14.3459 9.25093 14.2304 9.2104 14.1202L7.65601 10.4524H20.6985L19.175 14.1202ZM18.2897 2.11898C19.0829 2.0812 19.8748 2.21337 20.6034 2.50515C21.3321 2.79693 21.9777 3.24041 22.4897 3.80087L19.175 8.55195H9.31334L6.72954 4.67507C7.03672 4.71529 7.34596 4.74066 7.65601 4.75109C8.50411 4.67198 9.33206 4.46325 10.106 4.13344C10.0698 4.21842 10.0489 4.3083 10.0442 4.39951C10.0396 4.42467 10.0396 4.45036 10.0442 4.47552C10.0568 4.62424 10.1071 4.76813 10.1911 4.89556C10.2751 5.02299 10.3905 5.13037 10.5278 5.20901C10.6651 5.28765 10.8206 5.33535 10.9815 5.34824C11.1425 5.36113 11.3046 5.33885 11.4545 5.28321C11.623 5.21401 11.7682 5.10431 11.8751 4.96557C11.9819 4.82683 12.0464 4.66415 12.0618 4.49453C12.0666 4.46301 12.0666 4.43103 12.0618 4.39951C12.0583 4.23784 12.0101 4.07968 11.9218 3.94C11.8336 3.80033 11.7081 3.68376 11.5574 3.60132C13.6882 2.74171 15.968 2.23974 18.2897 2.11898ZM8.55159 1.90043C9.12049 1.91406 9.68785 1.96167 10.2501 2.04297L10.0751 2.10948C9.30946 2.40808 8.52168 2.65577 7.71777 2.85065C7.23125 2.81247 6.74913 2.73617 6.27661 2.6226C6.92645 2.1544 7.72723 1.9002 8.55159 1.90043ZM18.2691 4.41851C18.2708 4.29434 18.2987 4.17166 18.3515 4.05743C18.444 3.85678 18.6085 3.69163 18.8174 3.58968C19.0262 3.48774 19.2667 3.4552 19.4985 3.49754C19.7302 3.53988 19.9391 3.65452 20.0902 3.82221C20.2412 3.9899 20.3252 4.20045 20.3279 4.41851C20.3273 4.60992 20.2641 4.7967 20.1465 4.95438C20.029 5.11207 19.8626 5.2333 19.6691 5.30221C19.5522 5.34872 19.4258 5.37141 19.2985 5.36873C19.0255 5.36873 18.7637 5.26861 18.5706 5.09041C18.3776 4.91221 18.2691 4.67052 18.2691 4.41851ZM14.1515 4.49453C14.1469 4.46937 14.1469 4.44367 14.1515 4.41851C14.1515 4.1665 14.26 3.9248 14.453 3.7466C14.6461 3.5684 14.9079 3.46829 15.1809 3.46829C15.4539 3.46829 15.7158 3.5684 15.9088 3.7466C16.1019 3.9248 16.2103 4.1665 16.2103 4.41851C16.2151 4.45003 16.2151 4.48201 16.2103 4.51353C16.1949 4.68315 16.1304 4.84584 16.0236 4.98458C15.9167 5.12332 15.7715 5.23302 15.603 5.30221C15.4531 5.35786 15.291 5.38014 15.13 5.36725C14.969 5.35436 14.8136 5.30666 14.6763 5.22802C14.539 5.14937 14.4236 5.04199 14.3396 4.91457C14.2556 4.78714 14.2053 4.64324 14.1927 4.49453H14.1515ZM12.0927 7.26916C12.0927 7.01715 12.2012 6.77546 12.3942 6.59726C12.5873 6.41906 12.8491 6.31894 13.1221 6.31894C13.3951 6.31894 13.657 6.41906 13.85 6.59726C14.0431 6.77546 14.1515 7.01715 14.1515 7.26916C14.1563 7.30068 14.1563 7.33266 14.1515 7.36418C14.1361 7.53381 14.0716 7.69649 13.9648 7.83523C13.8579 7.97397 13.7127 8.08367 13.5442 8.15286C13.3942 8.20851 13.2322 8.23079 13.0712 8.2179C12.9102 8.20501 12.7548 8.15731 12.6175 8.07867C12.4802 8.00002 12.3648 7.89264 12.2808 7.76522C12.1968 7.63779 12.1465 7.49389 12.1339 7.34518C12.1293 7.32002 12.1293 7.29432 12.1339 7.26916H12.0927ZM16.2103 7.26916C16.2098 7.09598 16.2605 6.92596 16.357 6.77746C16.4536 6.62897 16.5922 6.50764 16.758 6.4266C16.9238 6.34556 17.1105 6.30789 17.2978 6.31765C17.4851 6.32741 17.6659 6.38424 17.8208 6.48199C17.9757 6.57975 18.0986 6.71471 18.1764 6.87229C18.2542 7.02987 18.2839 7.20409 18.2622 7.37611C18.2406 7.54812 18.1684 7.71141 18.0535 7.84831C17.9386 7.98521 17.7853 8.09052 17.6103 8.15286C17.4934 8.19937 17.367 8.22206 17.2397 8.21938C17.0647 8.219 16.8934 8.17288 16.7456 8.08635C16.6041 8.01212 16.4836 7.90796 16.3942 7.78242C16.3047 7.65688 16.2487 7.51355 16.2309 7.36418C16.2309 7.36418 16.2309 7.30717 16.2309 7.26916H16.2103Z" fill="#303030"/>
</svg>
