<svg width="35" height="46" viewBox="0 0 35 46" fill="none" xmlns="http://www.w3.org/2000/svg">
<path d="M31.4214 28.1089H28.5831C28.0937 26.9638 26.9486 26.1515 25.6176 26.1515H23.6503C23.5525 25.4272 23.2001 24.7813 22.6814 24.3017H22.7108V15.8064C22.7108 14.1034 21.321 12.7136 19.618 12.7136H10.1439C8.44093 12.7136 7.05118 14.1034 7.05118 15.8064V24.3017H7.08057C6.56184 24.7715 6.20946 25.4174 6.11158 26.1515H3.67457C1.89329 26.1515 0.45459 27.6 0.45459 29.44C0.846079 35.5277 2.03032 45.726 5.63202 45.726H23.6503C25.4512 45.726 26.6452 43.1715 27.4478 39.8536H30.4329C33.2908 39.8536 34.3674 34.0302 34.6903 31.5247L34.7001 31.3974C34.7099 29.5868 33.232 28.1089 31.4214 28.1089ZM8.0299 28.1089H9.98735V31.1528C9.98735 32.8557 11.3771 34.2455 13.0801 34.2455H16.6818C18.3848 34.2455 19.7746 32.8557 19.7746 31.1528V28.1089H21.732V34.0889C21.732 34.7153 21.2231 35.2243 20.5967 35.2243H9.16519C8.53881 35.2243 8.0299 34.7153 8.0299 34.0889V28.1089ZM11.9448 28.1089H17.8171V31.1528C17.8171 31.7791 17.3082 32.2881 16.6818 32.2881H13.0801C12.4537 32.2881 11.9448 31.7791 11.9448 31.1528V28.1089ZM20.5967 23.4894H19.7746V17.617H20.7533V23.5089C20.7044 23.4991 20.6456 23.4894 20.5967 23.4894ZM17.8171 17.617V23.4894H11.9448V17.617H17.8171ZM10.1439 14.6808H19.618C20.1856 14.6808 20.6456 15.1115 20.7239 15.6596H9.04775C9.11626 15.1115 9.57625 14.6808 10.1439 14.6808ZM9.00862 17.617H9.98735V23.4894H9.16519C9.10647 23.4894 9.05756 23.4991 9.00862 23.5089V17.617ZM9.16519 25.4468H20.5967C21.0763 25.4468 21.4776 25.7404 21.6439 26.1515H8.11801C8.2844 25.7404 8.6954 25.4468 9.16519 25.4468ZM23.6601 43.7685H5.64181C4.57501 43.7685 2.94056 37.4557 2.42183 29.3715C2.42183 28.6766 2.98947 28.1089 3.68437 28.1089H6.07245V34.0889C6.07245 35.7919 7.46221 37.1817 9.16519 37.1817H20.5967C22.2997 37.1817 23.6895 35.7919 23.6895 34.0889V28.1089H25.6176C26.3125 28.1089 26.8801 28.6766 26.8801 29.3128C26.3614 37.4557 24.7269 43.7685 23.6601 43.7685ZM30.4427 37.8962H27.8588C28.3384 35.283 28.6222 32.4349 28.7886 30.0664H31.4214C32.1359 30.0664 32.7231 30.634 32.7525 31.3387C32.2827 34.8817 31.0886 37.8962 30.4427 37.8962ZM12.9235 19.5745C12.9235 19.0362 13.3639 18.5957 13.9022 18.5957C14.4405 18.5957 14.881 19.0362 14.881 19.5745C14.881 20.1128 14.4405 20.5532 13.9022 20.5532C13.3639 20.5532 12.9235 20.1128 12.9235 19.5745ZM14.881 21.5319C14.881 20.9936 15.3214 20.5532 15.8597 20.5532C16.398 20.5532 16.8384 20.9936 16.8384 21.5319C16.8384 22.0702 16.398 22.5106 15.8597 22.5106C15.3214 22.5106 14.881 22.0702 14.881 21.5319ZM14.9005 7.92766C16.4861 7.92766 17.778 6.56722 17.778 4.89361C17.778 3.67999 16.5056 1.7519 15.7422 0.714451C15.6737 0.626366 15.5856 0.538281 15.4976 0.46977C15.0669 0.166366 14.3818 0.283813 14.0686 0.714451C13.3052 1.7519 12.0329 3.67999 12.0329 4.89361C12.0231 6.55744 13.315 7.92766 14.9005 7.92766ZM14.9005 2.95573C15.478 3.88552 15.8205 4.61956 15.8205 4.89361C15.8205 5.49063 15.4095 5.97021 14.9005 5.97021C14.3916 5.97021 13.9805 5.49063 13.9805 4.89361C13.9805 4.61956 14.3231 3.87573 14.9005 2.95573Z" fill="#303030"/>
</svg>
