<svg width="62" height="46" viewBox="0 0 62 46" fill="none" xmlns="http://www.w3.org/2000/svg">
<path d="M23.0326 7.34666C22.3244 6.87666 21.4957 6.62085 20.6458 6.60986C19.8769 6.60289 19.1258 6.84137 18.5018 7.29062C18.1574 7.68201 17.7335 7.99551 17.2584 8.21023C16.7834 8.42496 16.268 8.53598 15.7466 8.53591H4.71645C3.7405 8.53591 2.80452 8.14822 2.11442 7.45811C1.42432 6.76801 1.03662 5.83203 1.03662 4.85608C1.03662 3.88012 1.42432 2.94414 2.11442 2.25404C2.80452 1.56394 3.7405 1.17624 4.71645 1.17624H15.7497C16.2626 1.17555 16.77 1.28242 17.239 1.48994C17.708 1.69747 18.1283 2.00104 18.4728 2.38106C19.1616 2.94191 20.0232 3.24731 20.9115 3.2455C21.796 3.23314 22.6577 2.96262 23.3906 2.46719C23.9074 2.0234 24.5441 1.74261 25.2203 1.66026C25.8965 1.5779 26.582 1.69768 27.1902 2.00446C27.7984 2.31125 28.3022 2.7913 28.6379 3.38406C28.9735 3.97681 29.1262 4.65571 29.0764 5.33511C29.0267 6.0145 28.7769 6.66394 28.3584 7.20151C27.94 7.73907 27.3718 8.14066 26.7254 8.35562C26.079 8.57057 25.3834 8.58926 24.7263 8.40933C24.0693 8.2294 23.4803 7.8589 23.0336 7.34458L23.0326 7.34666Z" stroke="#303030" stroke-width="2"/>
<path d="M33.353 1.04105V9.16006L35.7305 11.5375H50.6344L53.0119 9.16006V1.04105H33.353Z" stroke="#303030" stroke-width="2" stroke-linecap="round" stroke-linejoin="round"/>
<path d="M33.353 7.51337H27.9712" stroke="#303030" stroke-width="2"/>
<path d="M39.6831 11.5332V14.873H46.7335V11.5332" stroke="#303030" stroke-width="2"/>
<path d="M32.0691 30.1453C31.9642 30.1453 31.8759 30.2182 31.8522 30.3159L33.2133 43.0195L33.2252 43.1298V43.2406C33.2252 43.6136 33.301 43.7887 33.3287 43.8102C33.379 43.8494 33.5647 43.9235 33.908 43.9235H51.3774C51.7638 43.9235 51.9399 43.8387 51.9643 43.8177C51.9652 43.8166 52.0602 43.6798 52.0602 43.2406V43.1298L52.072 43.0195L53.4331 30.3159C53.4095 30.2182 53.3212 30.1453 53.2163 30.1453H32.0691ZM32.0691 28.0699H53.2163C54.4858 28.0699 55.5149 29.099 55.5149 30.3685L54.1357 43.2406C54.1357 45.4817 52.6469 45.999 51.3774 45.999H33.908C32.6385 45.999 31.1497 45.447 31.1497 43.2406L29.7705 30.3685C29.7705 29.099 30.7996 28.0699 32.0691 28.0699Z" fill="#303030"/>
<path d="M30.8389 34.5621H54.4992" stroke="#303030" stroke-width="2"/>
<path d="M55.0772 31.288H56.2042C57.3509 31.3056 58.4445 31.7735 59.2492 32.5907C60.0538 33.4078 60.5048 34.5085 60.5048 35.6553C60.5048 36.8021 60.0538 37.9028 59.2492 38.7199C58.4445 39.5371 57.3509 40.005 56.2042 40.0226H53.9907" stroke="#303030" stroke-width="2"/>
<path d="M43.1811 18.1721C43.1811 18.1721 38.6461 24.2593 43.1811 24.2593C47.716 24.2593 43.1811 18.1721 43.1811 18.1721Z" stroke="#303030" stroke-width="2"/>
</svg>
