<svg width="20" height="46" viewBox="0 0 20 46" fill="none" xmlns="http://www.w3.org/2000/svg">
<g clip-path="url(#clip0)">
<path d="M1.84933 0.884615V0H0.964714V0.884615H1.84933ZM1.84933 1.3794H0.964714V1.73436L1.21007 1.99086L1.84933 1.3794ZM1.15663 3.80385L0.638696 3.08671L0.272015 3.35153V3.80385H1.15663ZM1.15663 42.8918L2.03819 42.9653L2.04124 42.9286V42.8918H1.15663ZM18.474 42.8918H17.5894V42.9286L17.5924 42.9653L18.474 42.8918ZM18.474 3.80385H19.3586V3.35153L18.9919 3.08671L18.474 3.80385ZM17.7812 1.3794L18.4205 1.99086L18.6659 1.73436V1.3794H17.7812ZM17.7812 0.884615H18.6659V0H17.7812V0.884615ZM1.84933 1.76923H8.87517V0H1.84933V1.76923ZM2.73394 1.3794V0.884615H0.964714V1.3794H2.73394ZM1.67456 4.52099C2.52949 3.90353 2.98336 3.18412 3.05415 2.43069C3.12239 1.70442 2.81699 1.11126 2.48858 0.767934L1.21007 1.99086C1.24451 2.02688 1.30525 2.13136 1.29267 2.26519C1.28265 2.37187 1.20875 2.67501 0.638696 3.08671L1.67456 4.52099ZM2.04124 42.8918V3.80385H0.272015V42.8918H2.04124ZM5.21386 43.7885C3.61766 43.7885 2.77617 43.5038 2.37035 43.2528C1.97019 43.0053 2.04837 42.8432 2.03819 42.9653L0.27507 42.8184C0.21541 43.5343 0.639935 44.2628 1.43963 44.7575C2.23367 45.2486 3.44554 45.5577 5.21386 45.5577V43.7885ZM8.87517 43.7885H5.21386V45.5577H8.87517V43.7885ZM8.87517 45.5577H10.7554V43.7885H8.87517V45.5577ZM10.7554 45.5577H14.4167V43.7885H10.7554V45.5577ZM14.4167 45.5577C16.185 45.5577 17.397 45.2486 18.1909 44.7575C18.9907 44.2628 19.4152 43.5343 19.3555 42.8184L17.5924 42.9653C17.5822 42.8432 17.6604 43.0053 17.2602 43.2528C16.8544 43.5038 16.0129 43.7885 14.4167 43.7885V45.5577ZM19.3586 42.8918V3.80385H17.5894V42.8918H19.3586ZM18.9919 3.08671C18.4219 2.67501 18.3479 2.37187 18.3379 2.26519C18.3254 2.13136 18.3861 2.02688 18.4205 1.99086L17.142 0.767934C16.8136 1.11126 16.5082 1.70442 16.5764 2.43069C16.6473 3.18412 17.1011 3.90353 17.956 4.52099L18.9919 3.08671ZM18.6659 1.3794V0.884615H16.8966V1.3794H18.6659ZM17.7812 0H10.7554V1.76923H17.7812V0ZM10.7554 0H10.1122V1.76923H10.7554V0ZM10.1122 0H9.51831V1.76923H10.1122V0ZM9.51831 0H8.87517V1.76923H9.51831V0Z" fill="#303030"/>
<path d="M15.3085 5.30768H8.82129" stroke="#303030" stroke-width="2" stroke-linecap="round"/>
<path d="M4.69287 5.30768H6.01979" stroke="#303030" stroke-width="2" stroke-linecap="round"/>
<path d="M14.8979 20.7662L12.1904 18.0587L9.48294 20.7662L12.1904 23.4737L14.8979 20.7662Z" stroke="#303030" stroke-width="2"/>
<path d="M15.7384 32.6863L12.6108 29.5587L9.48325 32.6863L12.6108 35.8139L15.7384 32.6863Z" stroke="#303030" stroke-width="2"/>
<path d="M8.75071 26.5389L6.46289 24.251L4.17507 26.5389L6.46289 28.8267L8.75071 26.5389Z" stroke="#303030" stroke-width="2"/>
</g>
<defs>
<clipPath id="clip0">
<rect width="19.4615" height="46" fill="white" transform="translate(0.27002)"/>
</clipPath>
</defs>
</svg>
