<svg width="94" height="93" viewBox="0 0 94 93" fill="none" xmlns="http://www.w3.org/2000/svg">
<path d="M30.5862 92.4492C31.6878 92.4493 32.7874 92.3596 33.8743 92.1808C34.2232 92.1244 34.5818 92.0556 34.9372 91.9767C36.9294 91.5366 38.8432 90.7967 40.6134 89.7824C45.8972 86.7646 50.0591 81.2554 52.3321 74.2697C53.0971 71.9046 53.6379 69.4728 53.9476 67.0064C54.7009 67.08 55.4611 67.121 56.2286 67.121C60.8833 67.121 65.773 65.7752 70.5767 63.1474C76.7861 59.7507 82.2843 54.5013 86.4769 47.9668C95.9529 33.2031 96.212 15.6746 87.0947 6.28922C85.53 4.6754 83.7045 3.33691 81.6948 2.33004C75.6489 -0.703361 68.206 -0.607658 60.7378 2.59898C53.3792 5.75816 46.6431 11.681 41.7698 19.2752C40.3292 21.5183 39.0761 23.8766 38.0234 26.3259C33.7532 23.1859 28.9609 21.3783 24.0491 21.3164C22.5111 21.2972 20.9759 21.4545 19.4737 21.7851C18.7837 21.9368 18.1024 22.1259 17.4329 22.3515C11.0181 24.4947 5.83371 29.8355 2.83508 37.3906C-0.120002 44.832 -0.677423 53.7843 1.26496 62.5959C5.10832 80.0402 17.5931 92.4492 30.5862 92.4492ZM85.8921 9.63902C89.0443 13.5318 90.7122 18.9603 90.6165 25.117C90.5079 32.1318 88.1036 39.6482 83.847 46.2793C79.9361 52.3748 74.8286 57.2597 69.0771 60.406C64.1778 63.0859 59.0405 64.3056 54.4286 63.9128C63.5135 56.7781 69.6309 46.5288 71.5986 35.1461C73.1707 26.1029 77.5511 17.7847 84.1181 11.3718L85.8921 9.63902ZM78.8571 7.99605L81.2611 5.64898C81.4564 5.76402 81.6528 5.88219 81.847 6.00582C82.5012 6.42596 83.1256 6.89074 83.7157 7.39683L81.9349 9.13512C74.8975 16.0068 70.2035 24.9207 68.5193 34.6113C66.8179 44.4535 61.7863 53.4122 54.2673 59.9869C54.2251 58.7228 54.1303 57.4505 53.9827 56.1699C60.4429 49.4516 64.7459 40.9546 66.3384 31.7712C67.8924 22.7218 72.2753 14.398 78.8571 7.99605ZM44.3993 20.9629C53.0435 7.49176 67.4571 0.535115 78.2204 4.25113L76.6741 5.7609C69.6212 12.6206 64.9247 21.5398 63.2595 31.2365C61.9153 38.9928 58.4949 46.24 53.3616 52.208C53.2927 51.8607 53.2214 51.5132 53.1448 51.1658C51.0736 41.765 46.4538 33.7439 40.5446 28.3906C41.5968 25.8007 42.8873 23.3141 44.3993 20.9629ZM25.5517 27.0134L25.5763 24.533C30.5583 25.0474 35.5814 27.697 39.8761 32.1084C44.7696 37.1359 48.3984 44.1429 50.0941 51.8384C51.7218 59.2283 51.4613 66.8513 49.3618 73.3033C47.7546 78.241 45.1314 82.3297 41.8263 85.1265C43.182 73.6546 40.2371 62.0875 33.5607 52.6605C28.3347 45.2951 25.5342 36.4841 25.5487 27.4531C25.5487 27.3074 25.5487 27.1634 25.5507 27.0134H25.5517ZM19.4482 28.3586L19.48 24.9992C19.7005 24.9406 19.922 24.8861 20.145 24.8371C20.9051 24.6701 21.6757 24.5556 22.4515 24.4943L22.4269 26.9791C22.4247 27.138 22.4247 27.2947 22.4247 27.4537C22.409 37.1311 25.4099 46.5728 31.0099 54.4654C37.3237 63.3798 40.0594 74.3403 38.6753 85.1761L38.3896 87.4341C37.4507 87.9185 36.4688 88.3145 35.4566 88.6171L35.6714 86.9142C35.9182 84.9607 36.0421 82.9936 36.0425 81.0246C36.0593 71.3449 33.0583 61.9007 27.4571 54.0062C22.1418 46.5193 19.3375 37.5398 19.4472 28.3586H19.4482ZM16.3427 26.1673L16.3222 28.3281C16.2048 38.1661 19.21 47.788 24.9056 55.8105C30.1326 63.1774 32.9333 71.9905 32.9181 81.0234C32.9176 82.8613 32.8017 84.6973 32.5712 86.5207L32.2267 89.2447C26.6648 89.772 20.8802 87.5466 15.8136 82.897C10.256 77.7964 6.17316 70.348 4.31711 61.9236C0.87121 46.2933 6.11262 31.1728 16.3427 26.1673Z" fill="#202020"/>
<path d="M53.6697 19.6019C54.0645 19.6023 54.4448 19.4528 54.7336 19.1835C55.389 18.5737 56.0781 17.9843 56.7816 17.4316C56.9429 17.3048 57.0777 17.1474 57.1782 16.9685C57.2788 16.7897 57.3431 16.5927 57.3675 16.389C57.3919 16.1853 57.376 15.9787 57.3206 15.7811C57.2652 15.5836 57.1714 15.3988 57.0446 15.2375C56.9178 15.0762 56.7605 14.9414 56.5816 14.8409C56.4027 14.7403 56.2058 14.676 56.002 14.6516C55.7983 14.6272 55.5918 14.6431 55.3942 14.6985C55.1966 14.7539 55.0119 14.8477 54.8506 14.9745C54.0795 15.58 53.324 16.2267 52.6045 16.8952C52.3746 17.109 52.2145 17.387 52.1449 17.6931C52.0754 17.9992 52.0996 18.3191 52.2145 18.6112C52.3294 18.9033 52.5296 19.1541 52.789 19.3308C53.0484 19.5075 53.355 19.6019 53.6689 19.6019H53.6697Z" fill="#202020"/>
<path d="M45.6857 29.1961C45.8694 29.2876 46.0693 29.342 46.274 29.3562C46.4787 29.3703 46.6842 29.344 46.8787 29.2787C47.0732 29.2134 47.253 29.1104 47.4077 28.9756C47.5624 28.8408 47.689 28.6768 47.7802 28.493C48.7759 26.4917 49.9753 24.5984 51.3593 22.8432C51.4894 22.6824 51.5863 22.4974 51.6443 22.2989C51.7023 22.1005 51.7204 21.8924 51.6974 21.6869C51.6745 21.4814 51.6109 21.2825 51.5105 21.1017C51.4101 20.9209 51.2748 20.7619 51.1125 20.6338C50.9501 20.5057 50.7639 20.4111 50.5648 20.3555C50.3656 20.2999 50.1573 20.2843 49.9521 20.3098C49.7469 20.3353 49.5488 20.4013 49.3692 20.5039C49.1897 20.6065 49.0323 20.7437 48.9062 20.9076C47.3885 22.8318 46.0736 24.9075 44.9822 27.1018C44.7978 27.4728 44.7684 27.9019 44.9003 28.2946C45.0322 28.6874 45.3147 29.0116 45.6857 29.1961Z" fill="#202020"/>
<path d="M15.4572 77.711C15.7266 78.026 16.1101 78.2211 16.5233 78.2534C16.9365 78.2856 17.3456 78.1525 17.6605 77.8831C17.9755 77.6137 18.1706 77.2303 18.2029 76.8171C18.2352 76.4039 18.102 75.9948 17.8326 75.6798C17.2508 74.9991 16.6902 74.286 16.1676 73.5603C15.9254 73.224 15.5595 72.9977 15.1504 72.9312C14.7414 72.8647 14.3227 72.9635 13.9864 73.2057C13.6502 73.4479 13.4239 73.8138 13.3574 74.2228C13.2909 74.6318 13.3896 75.0506 13.6318 75.3868C14.2059 76.1829 14.8199 76.9647 15.4572 77.711Z" fill="#202020"/>
<path d="M19.3121 81.575C21.1712 83.1718 23.1901 84.5725 25.3369 85.7547C25.5167 85.8544 25.7144 85.9176 25.9187 85.9407C26.123 85.9639 26.3299 85.9465 26.5274 85.8895C26.725 85.8326 26.9093 85.7372 27.07 85.6088C27.2306 85.4805 27.3643 85.3217 27.4634 85.1416C27.5626 84.9615 27.6252 84.7636 27.6477 84.5592C27.6702 84.3548 27.6521 84.148 27.5946 83.9507C27.537 83.7533 27.441 83.5692 27.3122 83.409C27.1833 83.2488 27.0241 83.1156 26.8437 83.017C24.8857 81.9388 23.0442 80.6614 21.3484 79.2051C21.0336 78.9389 20.6263 78.808 20.2154 78.8408C19.8044 78.8735 19.4231 79.0674 19.1544 79.3801C18.8858 79.6928 18.7516 80.099 18.7811 80.5102C18.8106 80.9214 19.0015 81.3043 19.3121 81.5754V81.575Z" fill="#202020"/>
</svg>
