<svg width="100" height="100" viewBox="0 0 100 100" fill="none" xmlns="http://www.w3.org/2000/svg">
<path d="M74.3013 52.4962C75.3798 52.4962 76.2544 51.6216 76.2544 50.5431C76.2544 49.4646 75.3798 48.59 74.3013 48.59H61.1689C60.0904 48.59 59.2158 49.4646 59.2158 50.5431C59.2158 51.6216 60.0904 52.4962 61.1689 52.4962H74.3013Z" fill="#202020"/>
<path d="M98.6278 64.7951C96.6006 61.8342 92.7931 60.6378 89.4517 61.8631V15.0396C89.4517 9.65496 85.0709 5.27417 79.6863 5.27417H28.1246C22.7399 5.27417 18.3591 9.65496 18.3591 15.0396V25.5192C18.3591 26.5977 19.2337 27.4723 20.3122 27.4723C21.3907 27.4723 22.2653 26.5977 22.2653 25.5192V15.0396C22.2653 11.8088 24.8938 9.18036 28.1246 9.18036H42.5775V25.519C42.5775 26.2512 42.987 26.9219 43.6384 27.2564C44.2899 27.5908 45.0737 27.533 45.6684 27.1064L53.9054 21.2026L62.1426 27.1064C62.4805 27.3488 62.8795 27.4721 63.2805 27.4721C63.5853 27.4721 63.8914 27.4008 64.1724 27.2564C64.8238 26.9219 65.2334 26.2514 65.2334 25.519V9.18036H79.6863C82.9171 9.18036 85.5455 11.8088 85.5455 15.0396V63.5029L71.6778 69.3616C71.777 68.8706 71.8295 68.3628 71.8295 67.8431C71.8295 63.6213 68.3946 60.1864 64.1728 60.1864H52.9162L46.4795 57.3351C43.5296 56.0283 40.3978 55.3656 37.1713 55.3656C33.3489 55.3656 29.5491 56.3171 26.1695 58.0853V55.4687C26.1695 54.3902 25.2949 53.5156 24.2164 53.5156H22.2653V43.0968C22.2653 42.0183 21.3907 41.1437 20.3122 41.1437C19.2337 41.1437 18.3591 42.0183 18.3591 43.0968V53.5156H1.95309C0.874596 53.5156 0 54.3902 0 55.4687V92.7728C0 93.8513 0.874596 94.7259 1.95309 94.7259H24.2164C25.2949 94.7259 26.1695 93.8513 26.1695 92.7728V90.8213H50.8306C60.9949 90.8213 71.1778 88.4277 80.2782 83.8995L95.6495 76.2508C97.6823 75.2391 99.176 73.3987 99.7471 71.2013C100.319 69.0034 99.9105 66.6687 98.6278 64.7951ZM61.3272 21.7161L55.0431 17.2123C54.7031 16.9685 54.3042 16.8466 53.9054 16.8466C53.5066 16.8466 53.1078 16.9685 52.7677 17.2123L46.4836 21.7161V9.18036H61.3272V21.7161ZM3.90619 90.8197V57.4218H22.2633V90.8197H3.90619ZM95.9667 70.2181C95.6798 71.3214 94.93 72.2454 93.9093 72.7532L78.538 80.4019C69.9753 84.6626 60.3944 86.9149 50.8306 86.9149H26.1695V62.6221C29.4056 60.4571 33.2741 59.2716 37.1713 59.2716C39.8496 59.2716 42.4487 59.8216 44.8975 60.9061L51.7121 63.9248C51.9611 64.0352 52.2304 64.0922 52.5031 64.0922H64.173C66.2412 64.0922 67.9235 65.7746 67.9235 67.8427C67.9235 69.9109 66.2412 71.5934 64.173 71.5934H47.5391C46.4606 71.5934 45.586 72.468 45.586 73.5465C45.586 74.625 46.4606 75.4996 47.5391 75.4996H64.6584C66.3355 75.4996 67.9693 75.1686 69.5143 74.5159L90.6218 65.5986C92.3398 64.8723 94.3511 65.4631 95.4046 67.0017C96.0487 67.9425 96.2536 69.1148 95.9667 70.2181Z" fill="#202020"/>
<path d="M20.3116 36.262C20.8253 36.262 21.3292 36.053 21.6923 35.6895C22.0575 35.3243 22.2648 34.8225 22.2648 34.3088C22.2648 33.793 22.0575 33.2913 21.6923 32.926C21.3292 32.5627 20.8253 32.3557 20.3116 32.3557C19.7978 32.3557 19.2941 32.5627 18.9308 32.926C18.5675 33.2913 18.3585 33.793 18.3585 34.3088C18.3585 34.8225 18.5673 35.3264 18.9308 35.6895C19.2941 36.053 19.7978 36.262 20.3116 36.262Z" fill="#202020"/>
</svg>
