<svg width="100" height="100" viewBox="0 0 100 100" fill="none" xmlns="http://www.w3.org/2000/svg">
<g clip-path="url(#clip0)">
<path d="M12.8218 73.2499C12.9888 73.4144 13.1898 73.5417 13.4111 73.6212V98.3399C13.4111 99.2567 14.1544 100 15.0713 100H91.4397C92.3565 100 93.0999 99.2567 93.0999 98.3399V58.4955C93.0999 57.5787 92.3565 56.8353 91.4397 56.8353H83.1258C84.8087 54.6401 86.4591 51.991 86.4591 50.1946C86.4575 47.4336 84.7471 44.9619 82.1644 43.9867C79.5809 43.0115 76.6642 43.7362 74.8378 45.8066C73.0115 43.7362 70.0948 43.0115 67.5113 43.9867C64.9286 44.9619 63.2182 47.4336 63.2166 50.1946C63.2166 51.991 64.867 54.6401 66.5499 56.8353H31.5831L38.6462 49.7731L50.385 38.0334L73.8651 14.5533C74.5128 13.9057 74.5128 12.8543 73.8651 12.2066L62.1263 0.466926C61.4672 -0.155642 60.4369 -0.155642 59.7787 0.466926L44.3085 15.9363C38.887 11.6918 32.4254 9.03859 29.2558 12.2066C27.1757 14.2866 27.6142 17.7943 29.3604 21.4916L22.1092 28.7452C18.4103 26.9999 14.9019 26.5605 12.8218 28.6422C9.65542 31.8061 12.3086 38.2709 16.5539 43.6917L1.08294 59.1594C0.43443 59.8079 0.43443 60.8585 1.08294 61.507L12.8218 73.2499ZM66.5369 50.1946C66.5369 48.3609 68.0236 46.8742 69.8573 46.8742C71.691 46.8742 73.1777 48.3609 73.1777 50.1946V50.6429C73.1777 51.5597 73.921 52.303 74.8378 52.303C75.7547 52.303 76.498 51.5597 76.498 50.6429V50.1946C76.498 48.3609 77.9847 46.8742 79.8184 46.8742C81.6521 46.8742 83.1388 48.3609 83.1388 50.1946C82.1863 52.6913 80.7117 54.9554 78.8124 56.8353H70.8633C68.9648 54.9554 67.4894 52.6913 66.5369 50.1946ZM61.5564 60.1557H89.7795V96.6797H61.5564V60.1557ZM48.2749 60.1557H58.236V96.6797H48.2749V60.1557ZM44.9546 60.1557V96.6797H16.7315V71.777H16.6399L28.3527 60.0657V60.1557H44.9546ZM37.474 46.25L28.082 36.858L37.474 27.4668L46.8652 36.858L37.474 46.25ZM60.9525 3.98833L70.3437 13.3804L49.2128 34.5104L39.8216 25.1257L60.9525 3.98833ZM31.6034 14.5533C32.0006 14.234 32.5064 14.0816 33.0147 14.127C34.8654 14.127 38.0966 15.3372 41.9447 18.2993L36.3002 23.9438L35.3501 24.8946C31.3407 19.6903 30.5406 15.6161 31.6034 14.5533ZM31.0424 24.5144C31.6366 25.4475 32.2876 26.3708 32.988 27.2657L27.8728 32.3809C26.9779 31.6805 26.0554 31.0295 25.124 30.4337L31.0424 24.5144ZM15.1694 30.9898C15.5658 30.6704 16.07 30.5172 16.5774 30.5626C18.4297 30.5626 21.6626 31.7713 25.5106 34.7349L24.5606 35.6842L18.9161 41.3295C14.9051 36.1244 14.1066 32.0501 15.1694 30.9898ZM25.7344 39.2056L35.1264 48.5976L13.9956 69.7285L4.61245 60.3364L25.7344 39.2056Z" fill="#202020"/>
<path d="M88.1193 22.5641C86.293 20.4937 83.3763 19.769 80.7928 20.7442C78.2101 21.7194 76.4997 24.191 76.498 26.9521C76.498 30.5578 84.3377 40.2335 88.1193 40.2335C91.9009 40.2335 99.7406 30.5578 99.7406 26.9521C99.739 24.191 98.0285 21.7194 95.4459 20.7442C92.8624 19.769 89.9457 20.4937 88.1193 22.5641ZM96.4202 26.9521C96.3838 29.0338 90 36.6691 88.1461 36.9132C86.2387 36.6675 79.8549 29.0321 79.8184 26.9521C79.8184 25.1184 81.3051 23.6317 83.1388 23.6317C84.9724 23.6317 86.4591 25.1184 86.4591 26.9521V27.4003C86.4591 28.3172 87.2025 29.0605 88.1193 29.0605C89.0362 29.0605 89.7795 28.3172 89.7795 27.4003V26.9521C89.7795 25.1184 91.2662 23.6317 93.0999 23.6317C94.9335 23.6317 96.4202 25.1184 96.4202 26.9521Z" fill="#202020"/>
<path d="M88.1193 5.36969C87.2025 5.36969 86.4592 6.11304 86.4592 7.02987V8.69006H84.799C83.8821 8.69006 83.1388 9.43341 83.1388 10.3502C83.1388 11.2671 83.8821 12.0104 84.799 12.0104H86.4592V13.6706C86.4592 14.5874 87.2025 15.3308 88.1193 15.3308C89.0362 15.3308 89.7795 14.5874 89.7795 13.6706V12.0104H91.4397C92.3565 12.0104 93.0999 11.2671 93.0999 10.3502C93.0999 9.43341 92.3565 8.69006 91.4397 8.69006H89.7795V7.02987C89.7795 6.11304 89.0362 5.36969 88.1193 5.36969Z" fill="#202020"/>
<path d="M66.5369 31.9325C66.5369 32.8494 65.7936 33.5927 64.8767 33.5927C63.9599 33.5927 63.2166 32.8494 63.2166 31.9325C63.2166 31.0157 63.9599 30.2723 64.8767 30.2723C65.7936 30.2723 66.5369 31.0157 66.5369 31.9325Z" fill="#202020"/>
<path d="M51.5953 53.5149C52.5121 53.5149 53.2555 52.7716 53.2555 51.8547V50.1946H54.9157C55.8325 50.1946 56.5758 49.4512 56.5758 48.5344C56.5758 47.6176 55.8325 46.8742 54.9157 46.8742H53.2555V45.214C53.2555 44.2972 52.5121 43.5538 51.5953 43.5538C50.6785 43.5538 49.9351 44.2972 49.9351 45.214V46.8742H48.2749C47.3581 46.8742 46.6147 47.6176 46.6147 48.5344C46.6147 49.4512 47.3581 50.1946 48.2749 50.1946H49.9351V51.8547C49.9351 52.7716 50.6785 53.5149 51.5953 53.5149Z" fill="#202020"/>
<path d="M96.4202 48.5344C96.4202 49.4512 95.6769 50.1946 94.76 50.1946C93.8432 50.1946 93.0999 49.4512 93.0999 48.5344C93.0999 47.6176 93.8432 46.8742 94.76 46.8742C95.6769 46.8742 96.4202 47.6176 96.4202 48.5344Z" fill="#202020"/>
</g>
<defs>
<clipPath id="clip0">
<rect width="100" height="100" fill="white"/>
</clipPath>
</defs>
</svg>
